<?xml version="1.0" encoding="utf-8"?>
<!-- Generator: Adobe Illustrator 26.4.1, SVG Export Plug-In . SVG Version: 6.00 Build 0)  -->
<svg version="1.1" id="Layer_1" xmlns="http://www.w3.org/2000/svg" xmlns:xlink="http://www.w3.org/1999/xlink" x="0px" y="0px"
	 viewBox="0 0 475.5 475.5" style="enable-background:new 0 0 475.5 475.5;" xml:space="preserve">
<style type="text/css">
	.st0{fill:#FFFFFF;}
</style>
<g id="Background">
</g>
<g id="Icons_Black">
	<g id="Ps">
		<g>
			<path class="st0" d="M119.1,144.1c0-1.4,0.6-2.3,2-2.3c10.8-0.3,31.7-0.9,52.4-0.9c54.9,0,75.3,30.6,75.3,61.7
				c0,45-34.8,64.5-77.5,64.5c-9.1,0-11.3,0-17.8,0v58c0,1.4-0.6,2.3-2.3,2.3h-29.7c-1.4,0-2.3-0.6-2.3-2L119.1,144.1L119.1,144.1z
				 M153.3,236.9c4.8,0.3,8.5,0.3,17.8,0.3c23.8,0,43.9-7.9,43.9-33.7c0-20.7-14.7-32.8-40.8-32.8c-9.9,0-17.8,0.3-20.9,0.6V236.9
				L153.3,236.9z"/>
			<path class="st0" d="M324.5,212.6c-15,0-20.1,6.2-20.1,12.2c0,6.2,4.2,10.5,22.4,17.5c32.3,11.9,43.3,24.6,43.3,44.7
				c0,26.6-20.9,43.3-55.7,43.3c-16.7,0-31.4-3.1-39.9-7.9c-1.4-0.9-2-1.4-2-3.1v-26.9c0-1.4,1.1-2,2.3-1.4
				c12.2,7.9,27.7,11.3,40.5,11.3c14.7,0,21.8-5.1,21.8-12.5c0-7.1-5.4-11.6-22.9-18.7c-30.8-11.3-41.9-24.1-41.9-44.4
				c0-21.5,17.5-41.6,52.9-41.6c16.4,0,28.9,2.3,35.7,5.7c1.4,0.9,1.7,2,1.7,3.4v24.9c0,1.4-0.9,2.3-2.5,1.7
				C351.1,216,337,212.6,324.5,212.6z"/>
		</g>
	</g>
</g>
<g id="Icons_White">
</g>
<g id="Icons_White_00000173157290721393445660000006738927549120801936_">
</g>
</svg>
