<?xml version="1.0" encoding="utf-8"?>
<!-- Generator: Adobe Illustrator 26.4.1, SVG Export Plug-In . SVG Version: 6.00 Build 0)  -->
<svg version="1.1" id="Layer_1" xmlns="http://www.w3.org/2000/svg" xmlns:xlink="http://www.w3.org/1999/xlink" x="0px" y="0px"
	 viewBox="0 0 475.5 475.5" style="enable-background:new 0 0 475.5 475.5;" xml:space="preserve">
<style type="text/css">
	.st0{fill:#FFFFFF;}
</style>
<g id="Background">
</g>
<g id="Icons_Black">
	<g id="Ai">
		<g>
			<path class="st0" d="M166.2,278.5l-15.6,46.7c-0.6,1.7-1.4,2.3-3.1,2.3h-28.3c-1.7,0-2.3-0.9-2-2.8l58.3-165.8
				c1.1-2.8,2-5.7,2.5-15.3c0-1.1,0.6-2,1.7-2H219c1.4,0,1.7,0.3,2,1.7L286.4,325c0.3,1.7,0,2.5-1.7,2.5H253c-1.4,0-2.3-0.6-2.8-1.7
				l-16.4-47.3H166.2L166.2,278.5z M224.8,247.7c-5.9-18.7-19.2-58-24.9-77.8h-0.3c-4.5,19-15.8,52.1-24.3,77.8H224.8z"/>
			<path class="st0" d="M305.1,149.5c0-11.6,8.2-19.5,19.5-19.5c12.2,0,19.2,8.2,19.2,19.5c0,11.6-7.6,19.5-19.5,19.5
				C312.8,169,305.1,161.1,305.1,149.5z M307.1,189.9c0-1.4,0.9-2,2.3-2h30c1.7,0,2.3,0.3,2.3,2v135.3c0,1.7-0.6,2.3-2.5,2.3h-29.1
				c-2,0-2.8-0.9-2.8-2.5L307.1,189.9L307.1,189.9z"/>
		</g>
	</g>
</g>
<g id="Icons_White">
</g>
</svg>
