<?xml version="1.0" encoding="utf-8"?>
<!-- Generator: Adobe Illustrator 26.4.1, SVG Export Plug-In . SVG Version: 6.00 Build 0)  -->
<svg version="1.1" id="Layer_1" xmlns="http://www.w3.org/2000/svg" xmlns:xlink="http://www.w3.org/1999/xlink" x="0px" y="0px"
	 viewBox="0 0 475.5 475.5" style="enable-background:new 0 0 475.5 475.5;" xml:space="preserve">
<style type="text/css">
	.st0{fill:#FFFFFF;}
</style>
<g id="Background">
</g>
<g id="Icons_Black">
	<g id="Ae">
		<g>
			<path class="st0" d="M131.1,278.5l-15.6,46.7c-0.6,1.7-1.4,2.3-3.1,2.3H84.1c-1.7,0-2.3-0.9-2-2.8l58.3-165.8
				c1.1-2.8,2-5.7,2.5-15.3c0-1.1,0.6-2,1.7-2H184c1.4,0,1.7,0.3,2,1.7L251.4,325c0.3,1.7,0,2.5-1.7,2.5H218c-1.4,0-2.3-0.6-2.8-1.7
				l-16.4-47.3H131.1L131.1,278.5z M189.7,247.7c-5.9-18.7-19.2-58-24.9-77.8h-0.3c-4.5,19-15.8,52.1-24.3,77.8H189.7z"/>
			<path class="st0" d="M296.1,265.5c0.9,19.8,13.9,35.7,42.7,35.7c12.7,0,24.3-2.3,35.1-6.8c0.9-0.6,1.7-0.3,1.7,1.1V319
				c0,1.7-0.6,2.5-1.7,3.1c-10.7,5.1-23.2,8.2-42.4,8.2c-51.5,0-69.9-36.2-69.9-71c0-39.3,23.8-74.1,66.5-74.1
				c41.9,0,58,32.8,58,59.7c0,7.9-0.3,14.4-1.1,17.5c-0.3,1.1-0.9,1.7-2.3,2c-4,0.9-15.3,1.1-29.2,1.1L296.1,265.5L296.1,265.5z
				 M338.2,241.2c10.8,0,14.4,0,15.6-0.3c0-0.9,0-2,0-2.3c0-8.2-5.7-26.3-27.2-26.3c-19.5,0-28.3,15-30.6,28.9L338.2,241.2
				L338.2,241.2z"/>
		</g>
	</g>
</g>
<g id="Icons_White">
</g>
</svg>
