<?xml version="1.0" encoding="utf-8"?>
<!-- Generator: Adobe Illustrator 26.4.1, SVG Export Plug-In . SVG Version: 6.00 Build 0)  -->
<svg version="1.1" id="Layer_1" xmlns="http://www.w3.org/2000/svg" xmlns:xlink="http://www.w3.org/1999/xlink" x="0px" y="0px"
	 viewBox="0 0 475.5 475.5" style="enable-background:new 0 0 475.5 475.5;" xml:space="preserve">
<style type="text/css">
	.st0{fill:#FFFFFF;}
</style>
<g id="Background">
</g>
<g id="Icons_Black">
	<g id="Au">
		<g>
			<path class="st0" d="M127.4,278.5l-15.6,46.7c-0.6,1.7-1.4,2.3-3.1,2.3H80.4c-1.7,0-2.3-0.9-2-2.8l58.3-165.8
				c1.1-2.8,2-5.7,2.5-15.3c0-1.1,0.6-2,1.7-2h39.3c1.4,0,1.7,0.3,2,1.7L247.6,325c0.3,1.7,0,2.5-1.7,2.5h-31.7
				c-1.4,0-2.3-0.6-2.8-1.7L195,278.5H127.4L127.4,278.5z M186,247.7c-5.9-18.7-19.2-58-24.9-77.8h-0.3c-4.5,19-15.8,52.1-24.3,77.8
				H186z"/>
			<path class="st0" d="M380.1,296.3c0,14.7,1.1,23.2,1.7,29.2c0.3,1.4-0.6,2-2.3,2h-26c-2,0-2.5-0.6-2.8-1.7
				c-0.9-2.8-1.7-7.1-2-9.9c-12.2,11.3-26.6,14.4-39.3,14.4c-26.9,0-47.5-14.4-47.5-54V190c0-1.7,0.6-2,2.3-2h29.7c1.7,0,2,0.6,2,2
				v82.3c0,17.5,7.6,28.3,24.6,28.3c10.7,0,18.7-3.7,25.7-10.2V189.9c0-1.4,0.6-2,2.3-2h29.7c1.7,0,2,0.6,2,2L380.1,296.3
				L380.1,296.3z"/>
		</g>
	</g>
</g>
<g id="Icons_White">
</g>
</svg>
