<?xml version="1.0" encoding="utf-8"?>
<!-- Generator: Adobe Illustrator 26.4.1, SVG Export Plug-In . SVG Version: 6.00 Build 0)  -->
<svg version="1.1" id="Layer_1" xmlns="http://www.w3.org/2000/svg" xmlns:xlink="http://www.w3.org/1999/xlink" x="0px" y="0px"
	 viewBox="0 0 475.5 475.5" style="enable-background:new 0 0 475.5 475.5;" xml:space="preserve">
<style type="text/css">
	.st0{fill:#FFFFFF;}
</style>
<g id="Background">
</g>
<g id="Icons_Black">
	<g id="Pr">
		<g>
			<path class="st0" d="M130.8,144.1c0-1.4,0.6-2.3,2-2.3c10.8-0.3,31.7-0.9,52.4-0.9c54.9,0,75.3,30.6,75.3,61.7
				c0,45-34.8,64.5-77.5,64.5c-9.1,0-11.3,0-17.8,0v58c0,1.4-0.6,2.3-2.3,2.3h-29.7c-1.4,0-2.3-0.6-2.3-2L130.8,144.1L130.8,144.1z
				 M165.1,236.9c4.8,0.3,8.5,0.3,17.8,0.3c23.8,0,43.9-7.9,43.9-33.7c0-20.7-14.7-32.8-40.8-32.8c-9.9,0-17.8,0.3-20.9,0.6
				L165.1,236.9L165.1,236.9z"/>
			<path class="st0" d="M311.9,188c1.7,0,2.5,0.6,3.1,2.3c1.4,3.7,2.5,10.8,2.8,17c9.6-11.9,25.7-22.1,45.3-22.1
				c1.7,0,2.3,0.3,2.3,2v30c0,1.4-0.6,2-2.5,2c-20.1-0.6-36.8,6.5-43.3,15v91.1c0,1.7-0.9,2.3-2.5,2.3h-29.4c-2,0-2.5-0.9-2.5-2.3
				v-97.6c0-12.2-0.3-28.6-1.4-37.9c0-1.4,0.3-1.7,1.7-1.7L311.9,188L311.9,188z"/>
		</g>
	</g>
</g>
<g id="Icons_White">
</g>
</svg>
